<svg width="84" height="84" viewBox="0 0 84 84" fill="#4c4c4c" xmlns="http://www.w3.org/2000/svg">
    <path d="M10 0C4.48 0 0 4.48 0 10V74C0 79.52 4.48 84 10 84H74C79.52 84 84 79.52 84 74V10C84 4.48 79.52 0 74 0H10ZM26 18H42.0586C45.5386 18 60 17.9997 60 28.6797C60 30.9397 59.4412 32.9197 58.2812 34.6797C57.1213 36.4397 54.7817 37.7186 52.7617 38.5586L54.3789 38.8008C57.2789 39.4008 59.6189 40.6009 61.3789 42.4609C63.1189 44.3009 64 46.7819 64 49.9219C64 52.2019 63.5602 54.2214 62.6602 55.9414C61.7802 57.6814 60.5816 59.0983 59.1016 60.2383C57.3216 61.5783 55.3588 62.5606 53.2188 63.1406C51.0988 63.7006 48.4206 64 45.1406 64H26V18ZM38 28V36H44C46.21 36 48 34.21 48 32C48 29.79 46.21 28 44 28H38ZM38 44V54H47C49.76 54 52 51.76 52 49C52 46.24 49.76 44 47 44H38Z" fill="black" fill-opacity="0.73"/>
</svg>